STARTFONT 2.1
FONT -sun-helmetcondensed-medium-r-semicondensed--20-200-75-75-p-91-adobe-fontspecific
SIZE 20 75 75
FONTBOUNDINGBOX 21 25 -3 -5

STARTPROPERTIES 28
FOUNDRY "sun"
FAMILY_NAME "helmetcondensed"
WEIGHT_NAME "medium"
SLANT "r"
SETWIDTH_NAME "semicondensed"
ADD_STYLE_NAME ""
PIXEL_SIZE 21
POINT_SIZE 200
RESOLUTION_X 75
RESOLUTION_Y 75
SPACING "p"
AVERAGE_WIDTH 91
CHARSET_REGISTRY "adobe"
CHARSET_ENCODING "fontspecific"
COPYRIGHT "© 1999 Sun Microsystems, Inc."
RAW_PIXELSIZE 1000
RAW_POINTSIZE 964
RAW_ASCENT 935
RAW_DESCENT 238
RAW_AVERAGE_WIDTH 4358
FACE_NAME "HelmetCondensedNormaledB5"
_XMBDFED_INFO "Edited with xmbdfed 2.4."
WEIGHT 10
X_HEIGHT -2
QUAD_WIDTH 11
DEFAULT_CHAR 4
FONT_DESCENT 5
FONT_ASCENT 20
ENDPROPERTIES

CHARS 210

STARTCHAR char32
ENCODING 32
SWIDTH 25 0
DWIDTH 6 0
BBX 0 0 0 0
BITMAP
ENDCHAR

STARTCHAR char33
ENCODING 33
SWIDTH 17 0
DWIDTH 4 0
BBX 1 15 2 0
BITMAP
80
80
80
80
80
80
80
80
80
80
80
00
00
00
80
ENDCHAR

STARTCHAR char34
ENCODING 34
SWIDTH 25 0
DWIDTH 6 0
BBX 4 5 1 10
BITMAP
90
90
90
90
90
ENDCHAR

STARTCHAR char35
ENCODING 35
SWIDTH 8 0
DWIDTH 12 0
BBX 11 15 0 0
BITMAP
0880
0880
0880
1980
7FE0
1980
1100
1100
1100
FFC0
7FC0
3300
3300
2200
2200
ENDCHAR

STARTCHAR char36
ENCODING 36
SWIDTH 43 0
DWIDTH 10 0
BBX 7 16 1 -1
BITMAP
10
7C
94
92
90
90
70
38
1C
12
92
92
92
54
38
10
ENDCHAR

STARTCHAR char37
ENCODING 37
SWIDTH 25 0
DWIDTH 16 0
BBX 14 15 0 0
BITMAP
7020
4820
8840
8840
8880
8898
8924
8944
4A44
3244
0444
0444
0864
0864
1038
ENDCHAR

STARTCHAR char38
ENCODING 38
SWIDTH 3 0
DWIDTH 11 0
BBX 10 15 1 0
BITMAP
3800
6400
4400
4400
6400
2800
3800
3800
4880
8C80
8780
8300
8300
4780
3C80
ENDCHAR

STARTCHAR char39
ENCODING 39
SWIDTH 12 0
DWIDTH 3 0
BBX 1 4 1 11
BITMAP
80
80
80
80
ENDCHAR

STARTCHAR char40
ENCODING 40
SWIDTH 21 0
DWIDTH 5 0
BBX 4 19 1 -3
BITMAP
20
20
40
40
40
80
80
80
80
80
80
80
80
40
40
40
20
20
10
ENDCHAR

STARTCHAR char41
ENCODING 41
SWIDTH 21 0
DWIDTH 5 0
BBX 3 19 0 -3
BITMAP
80
40
40
40
20
20
20
20
20
20
20
20
20
20
20
40
40
80
80
ENDCHAR

STARTCHAR char42
ENCODING 42
SWIDTH 30 0
DWIDTH 7 0
BBX 5 6 1 9
BITMAP
20
20
F8
20
50
50
ENDCHAR

STARTCHAR char43
ENCODING 43
SWIDTH 43 0
DWIDTH 10 0
BBX 10 9 0 2
BITMAP
0400
0400
0400
0400
FFC0
0400
0400
0400
0400
ENDCHAR

STARTCHAR char44
ENCODING 44
SWIDTH 12 0
DWIDTH 3 0
BBX 1 4 1 -3
BITMAP
80
80
80
80
ENDCHAR

STARTCHAR char45
ENCODING 45
SWIDTH 30 0
DWIDTH 7 0
BBX 5 1 1 5
BITMAP
F8
ENDCHAR

STARTCHAR char46
ENCODING 46
SWIDTH 12 0
DWIDTH 3 0
BBX 1 1 1 0
BITMAP
80
ENDCHAR

STARTCHAR char47
ENCODING 47
SWIDTH 25 0
DWIDTH 6 0
BBX 6 16 0 -1
BITMAP
08
08
08
08
08
10
10
10
20
20
20
20
40
40
40
80
ENDCHAR

STARTCHAR char48
ENCODING 48
SWIDTH 43 0
DWIDTH 10 0
BBX 7 15 1 0
BITMAP
38
44
44
82
82
82
82
82
82
82
82
82
46
44
38
ENDCHAR

STARTCHAR char49
ENCODING 49
SWIDTH 43 0
DWIDTH 10 0
BBX 5 15 1 0
BITMAP
08
08
38
F8
08
08
08
08
08
08
08
08
08
08
08
ENDCHAR

STARTCHAR char50
ENCODING 50
SWIDTH 43 0
DWIDTH 10 0
BBX 7 15 1 0
BITMAP
38
44
C2
82
82
02
06
0C
18
30
60
40
C0
80
FE
ENDCHAR

STARTCHAR char51
ENCODING 51
SWIDTH 43 0
DWIDTH 10 0
BBX 7 15 1 0
BITMAP
38
4C
C6
82
02
06
0C
38
06
02
02
82
82
C6
7C
ENDCHAR

STARTCHAR char52
ENCODING 52
SWIDTH 43 0
DWIDTH 10 0
BBX 8 15 0 0
BITMAP
02
06
06
0A
0A
12
32
22
42
42
FF
06
06
06
06
ENDCHAR

STARTCHAR char53
ENCODING 53
SWIDTH 43 0
DWIDTH 10 0
BBX 7 14 1 0
BITMAP
7C
40
40
40
F8
C4
C6
02
02
02
82
82
C4
78
ENDCHAR

STARTCHAR char54
ENCODING 54
SWIDTH 43 0
DWIDTH 10 0
BBX 7 15 1 0
BITMAP
38
64
42
C0
80
80
BC
C4
82
82
82
82
C2
44
3C
ENDCHAR

STARTCHAR char55
ENCODING 55
SWIDTH 43 0
DWIDTH 10 0
BBX 7 14 1 0
BITMAP
FE
02
04
0C
08
18
10
10
30
20
20
20
20
60
ENDCHAR

STARTCHAR char56
ENCODING 56
SWIDTH 43 0
DWIDTH 10 0
BBX 7 15 1 0
BITMAP
38
44
86
82
82
C6
4C
38
C6
82
82
82
82
C6
7C
ENDCHAR

STARTCHAR char57
ENCODING 57
SWIDTH 43 0
DWIDTH 10 0
BBX 7 15 1 0
BITMAP
38
4C
84
82
82
82
82
86
4E
7A
02
06
84
4C
38
ENDCHAR

STARTCHAR char58
ENCODING 58
SWIDTH 17 0
DWIDTH 4 0
BBX 1 10 2 0
BITMAP
80
00
00
00
00
00
00
00
00
80
ENDCHAR

STARTCHAR char59
ENCODING 59
SWIDTH 17 0
DWIDTH 4 0
BBX 1 13 2 -3
BITMAP
80
00
00
00
00
00
00
00
00
80
80
80
80
ENDCHAR

STARTCHAR char60
ENCODING 60
SWIDTH 12 0
DWIDTH 13 0
BBX 10 11 1 0
BITMAP
0040
00C0
0780
1C00
7000
C000
E000
3800
0E00
01C0
0040
ENDCHAR

STARTCHAR char61
ENCODING 61
SWIDTH 43 0
DWIDTH 10 0
BBX 10 4 0 4
BITMAP
FFC0
0000
0000
FFC0
ENDCHAR

STARTCHAR char62
ENCODING 62
SWIDTH 12 0
DWIDTH 13 0
BBX 10 11 1 0
BITMAP
8000
C000
7800
0E00
0380
00C0
01C0
0700
1C00
E000
8000
ENDCHAR

STARTCHAR char63
ENCODING 63
SWIDTH 38 0
DWIDTH 9 0
BBX 6 15 1 0
BITMAP
70
88
84
84
04
04
08
10
10
20
20
00
00
00
20
ENDCHAR

STARTCHAR char64
ENCODING 64
SWIDTH 11 0
DWIDTH 23 0
BBX 15 15 3 0
BITMAP
07E0
1838
200C
4394
4672
8C62
9822
9822
9066
9844
4CC8
4770
2004
1818
07E0
ENDCHAR

STARTCHAR char65
ENCODING 65
SWIDTH 43 0
DWIDTH 10 0
BBX 9 15 0 0
BITMAP
0800
1C00
1400
1400
1400
2200
2200
2200
6300
7F00
4100
4100
C180
8080
8080
ENDCHAR

STARTCHAR char66
ENCODING 66
SWIDTH 43 0
DWIDTH 10 0
BBX 8 15 1 0
BITMAP
F8
84
82
82
82
82
84
F8
86
83
83
83
82
86
F8
ENDCHAR

STARTCHAR char67
ENCODING 67
SWIDTH 43 0
DWIDTH 10 0
BBX 8 15 1 0
BITMAP
3C
66
43
81
80
80
80
80
80
80
81
81
43
42
3C
ENDCHAR

STARTCHAR char68
ENCODING 68
SWIDTH 3 0
DWIDTH 11 0
BBX 8 15 1 0
BITMAP
FC
86
82
81
81
81
81
81
81
81
81
81
82
86
FC
ENDCHAR

STARTCHAR char69
ENCODING 69
SWIDTH 38 0
DWIDTH 9 0
BBX 7 15 1 0
BITMAP
FE
80
80
80
80
80
80
FE
80
80
80
80
80
80
FE
ENDCHAR

STARTCHAR char70
ENCODING 70
SWIDTH 34 0
DWIDTH 8 0
BBX 7 15 1 0
BITMAP
FE
80
80
80
80
80
80
FC
80
80
80
80
80
80
80
ENDCHAR

STARTCHAR char71
ENCODING 71
SWIDTH 3 0
DWIDTH 11 0
BBX 8 15 1 0
BITMAP
3C
66
43
81
80
80
80
80
8F
81
81
81
C1
63
3D
ENDCHAR

STARTCHAR char72
ENCODING 72
SWIDTH 3 0
DWIDTH 11 0
BBX 8 15 1 0
BITMAP
81
81
81
81
81
81
81
FF
81
81
81
81
81
81
81
ENDCHAR

STARTCHAR char73
ENCODING 73
SWIDTH 17 0
DWIDTH 4 0
BBX 1 15 1 0
BITMAP
80
80
80
80
80
80
80
80
80
80
80
80
80
80
80
ENDCHAR

STARTCHAR char74
ENCODING 74
SWIDTH 34 0
DWIDTH 8 0
BBX 6 15 0 0
BITMAP
04
04
04
04
04
04
04
04
04
04
04
84
84
44
78
ENDCHAR

STARTCHAR char75
ENCODING 75
SWIDTH 43 0
DWIDTH 10 0
BBX 8 15 1 0
BITMAP
83
82
86
8C
88
90
B0
F0
C8
8C
84
86
82
83
81
ENDCHAR

STARTCHAR char76
ENCODING 76
SWIDTH 34 0
DWIDTH 8 0
BBX 7 15 1 0
BITMAP
80
80
80
80
80
80
80
80
80
80
80
80
80
80
FE
ENDCHAR

STARTCHAR char77
ENCODING 77
SWIDTH 16 0
DWIDTH 14 0
BBX 11 15 1 0
BITMAP
C060
C060
E060
A0A0
A0A0
A0A0
B120
9120
9120
9920
8A20
8A20
8A20
8E20
8420
ENDCHAR

STARTCHAR char78
ENCODING 78
SWIDTH 3 0
DWIDTH 11 0
BBX 8 15 1 0
BITMAP
C1
C1
E1
A1
A1
91
91
99
89
8D
85
85
83
83
81
ENDCHAR

STARTCHAR char79
ENCODING 79
SWIDTH 3 0
DWIDTH 11 0
BBX 8 15 1 0
BITMAP
3C
62
41
81
81
81
81
81
81
81
81
81
41
62
3C
ENDCHAR

STARTCHAR char80
ENCODING 80
SWIDTH 38 0
DWIDTH 9 0
BBX 8 15 1 0
BITMAP
FC
86
83
81
81
83
86
FC
80
80
80
80
80
80
80
ENDCHAR

STARTCHAR char81
ENCODING 81
SWIDTH 3 0
DWIDTH 11 0
BBX 9 16 1 -1
BITMAP
3C00
6200
4100
8100
8100
8100
8100
8100
8100
8100
8100
8100
4D00
4200
3D80
0080
ENDCHAR

STARTCHAR char82
ENCODING 82
SWIDTH 43 0
DWIDTH 10 0
BBX 8 15 1 0
BITMAP
F8
84
82
82
82
82
84
F8
84
82
82
82
82
82
83
ENDCHAR

STARTCHAR char83
ENCODING 83
SWIDTH 43 0
DWIDTH 10 0
BBX 8 15 1 0
BITMAP
3C
46
82
83
80
C0
60
38
06
03
01
81
81
C2
3C
ENDCHAR

STARTCHAR char84
ENCODING 84
SWIDTH 34 0
DWIDTH 8 0
BBX 8 15 0 0
BITMAP
FF
10
10
10
10
10
10
10
10
10
10
10
10
10
10
ENDCHAR

STARTCHAR char85
ENCODING 85
SWIDTH 3 0
DWIDTH 11 0
BBX 8 15 1 0
BITMAP
81
81
81
81
81
81
81
81
81
81
81
81
81
42
3C
ENDCHAR

STARTCHAR char86
ENCODING 86
SWIDTH 43 0
DWIDTH 10 0
BBX 9 15 0 0
BITMAP
8080
8080
C180
4100
4100
4100
2300
2200
2200
3200
1600
1400
1400
1C00
0800
ENDCHAR

STARTCHAR char87
ENCODING 87
SWIDTH 16 0
DWIDTH 14 0
BBX 14 15 0 0
BITMAP
8308
8308
C308
4708
4508
4598
4490
6490
2C90
2890
28F0
2860
2860
1860
1060
ENDCHAR

STARTCHAR char88
ENCODING 88
SWIDTH 38 0
DWIDTH 9 0
BBX 9 15 0 0
BITMAP
C180
4100
6300
2200
3600
1400
1C00
0800
1C00
1400
3600
6200
4300
C100
8180
ENDCHAR

STARTCHAR char89
ENCODING 89
SWIDTH 38 0
DWIDTH 9 0
BBX 9 15 0 0
BITMAP
8180
4180
4100
2300
2200
1600
1400
1C00
0800
0800
0800
0800
0800
0800
0800
ENDCHAR

STARTCHAR char90
ENCODING 90
SWIDTH 30 0
DWIDTH 7 0
BBX 7 15 0 0
BITMAP
FE
02
06
04
0C
08
18
10
30
20
20
40
40
80
FE
ENDCHAR

STARTCHAR char91
ENCODING 91
SWIDTH 21 0
DWIDTH 5 0
BBX 3 19 2 -3
BITMAP
E0
80
80
80
80
80
80
80
80
80
80
80
80
80
80
80
80
80
E0
ENDCHAR

STARTCHAR char92
ENCODING 92
SWIDTH 25 0
DWIDTH 6 0
BBX 6 15 0 0
BITMAP
80
C0
40
40
60
20
20
30
10
10
18
18
08
0C
0C
ENDCHAR

STARTCHAR char93
ENCODING 93
SWIDTH 21 0
DWIDTH 5 0
BBX 3 18 0 -3
BITMAP
E0
20
20
20
20
20
20
20
20
20
20
20
20
20
20
20
20
E0
ENDCHAR

STARTCHAR char94
ENCODING 94
SWIDTH 0 0
DWIDTH 0 0
BBX 6 3 -3 16
BITMAP
30
38
48
ENDCHAR

STARTCHAR char95
ENCODING 95
SWIDTH 8 0
DWIDTH 12 0
BBX 12 1 0 -3
BITMAP
FFF0
ENDCHAR

STARTCHAR char96
ENCODING 96
SWIDTH 0 0
DWIDTH 0 0
BBX 4 3 -3 12
BITMAP
C0
60
20
ENDCHAR

STARTCHAR char97
ENCODING 97
SWIDTH 34 0
DWIDTH 8 0
BBX 6 11 1 0
BITMAP
78
88
8C
0C
1C
68
C8
88
88
8C
7C
ENDCHAR

STARTCHAR char98
ENCODING 98
SWIDTH 38 0
DWIDTH 9 0
BBX 7 15 1 0
BITMAP
80
80
80
80
B8
C4
86
82
82
82
82
82
86
C4
B8
ENDCHAR

STARTCHAR char99
ENCODING 99
SWIDTH 30 0
DWIDTH 7 0
BBX 6 11 1 0
BITMAP
78
48
84
80
80
80
80
84
84
4C
78
ENDCHAR

STARTCHAR char100
ENCODING 100
SWIDTH 38 0
DWIDTH 9 0
BBX 6 15 1 0
BITMAP
04
04
04
04
74
4C
84
84
84
84
84
84
84
CC
74
ENDCHAR

STARTCHAR char101
ENCODING 101
SWIDTH 34 0
DWIDTH 8 0
BBX 6 11 1 0
BITMAP
78
48
84
84
84
FC
80
80
84
88
78
ENDCHAR

STARTCHAR char102
ENCODING 102
SWIDTH 17 0
DWIDTH 4 0
BBX 4 15 0 0
BITMAP
10
20
20
20
F0
20
20
20
20
20
20
20
20
20
20
ENDCHAR

STARTCHAR char103
ENCODING 103
SWIDTH 38 0
DWIDTH 9 0
BBX 6 15 1 -4
BITMAP
74
4C
84
84
84
84
84
84
84
4C
7C
04
84
48
78
ENDCHAR

STARTCHAR char104
ENCODING 104
SWIDTH 38 0
DWIDTH 9 0
BBX 6 15 1 0
BITMAP
80
80
80
80
B8
C4
84
84
84
84
84
84
84
84
84
ENDCHAR

STARTCHAR char105
ENCODING 105
SWIDTH 12 0
DWIDTH 3 0
BBX 1 15 1 0
BITMAP
80
00
00
00
80
80
80
80
80
80
80
80
80
80
80
ENDCHAR

STARTCHAR char106
ENCODING 106
SWIDTH 12 0
DWIDTH 3 0
BBX 2 19 0 -4
BITMAP
40
00
00
00
40
40
40
40
40
40
40
40
40
40
40
40
40
40
80
ENDCHAR

STARTCHAR char107
ENCODING 107
SWIDTH 30 0
DWIDTH 7 0
BBX 6 15 1 0
BITMAP
80
80
80
80
84
88
90
B0
A0
F0
90
98
88
8C
84
ENDCHAR

STARTCHAR char108
ENCODING 108
SWIDTH 12 0
DWIDTH 3 0
BBX 1 15 1 0
BITMAP
80
80
80
80
80
80
80
80
80
80
80
80
80
80
80
ENDCHAR

STARTCHAR char109
ENCODING 109
SWIDTH 16 0
DWIDTH 14 0
BBX 11 11 1 0
BITMAP
B9C0
CE60
8420
8420
8420
8420
8420
8420
8420
8420
8420
ENDCHAR

STARTCHAR char110
ENCODING 110
SWIDTH 38 0
DWIDTH 9 0
BBX 6 11 1 0
BITMAP
B8
C4
84
84
84
84
84
84
84
84
84
ENDCHAR

STARTCHAR char111
ENCODING 111
SWIDTH 38 0
DWIDTH 9 0
BBX 7 11 1 0
BITMAP
78
44
86
82
82
82
82
82
86
84
78
ENDCHAR

STARTCHAR char112
ENCODING 112
SWIDTH 38 0
DWIDTH 9 0
BBX 7 15 1 -4
BITMAP
B8
C4
86
82
82
82
82
82
86
C4
B8
80
80
80
80
ENDCHAR

STARTCHAR char113
ENCODING 113
SWIDTH 38 0
DWIDTH 9 0
BBX 6 15 1 -4
BITMAP
74
CC
84
84
84
84
84
84
84
4C
74
04
04
04
04
ENDCHAR

STARTCHAR char114
ENCODING 114
SWIDTH 21 0
DWIDTH 5 0
BBX 4 11 1 0
BITMAP
B0
C0
80
80
80
80
80
80
80
80
80
ENDCHAR

STARTCHAR char115
ENCODING 115
SWIDTH 34 0
DWIDTH 8 0
BBX 7 11 0 0
BITMAP
38
44
46
40
20
18
04
02
42
46
3C
ENDCHAR

STARTCHAR char116
ENCODING 116
SWIDTH 21 0
DWIDTH 5 0
BBX 4 14 0 0
BITMAP
20
20
20
F0
20
20
20
20
20
20
20
20
20
30
ENDCHAR

STARTCHAR char117
ENCODING 117
SWIDTH 38 0
DWIDTH 9 0
BBX 6 11 1 0
BITMAP
84
84
84
84
84
84
84
84
84
8C
74
ENDCHAR

STARTCHAR char118
ENCODING 118
SWIDTH 30 0
DWIDTH 7 0
BBX 7 11 0 0
BITMAP
82
86
C4
44
44
48
68
28
28
30
10
ENDCHAR

STARTCHAR char119
ENCODING 119
SWIDTH 3 0
DWIDTH 11 0
BBX 11 11 0 0
BITMAP
8440
8C40
4C40
4A40
4A40
4A80
4A80
3280
3180
3180
3100
ENDCHAR

STARTCHAR char120
ENCODING 120
SWIDTH 30 0
DWIDTH 7 0
BBX 7 11 0 0
BITMAP
C6
44
6C
28
38
10
28
28
44
C4
82
ENDCHAR

STARTCHAR char121
ENCODING 121
SWIDTH 30 0
DWIDTH 7 0
BBX 7 15 0 -4
BITMAP
82
86
44
44
44
4C
28
28
28
30
10
10
20
20
C0
ENDCHAR

STARTCHAR char122
ENCODING 122
SWIDTH 30 0
DWIDTH 7 0
BBX 7 11 0 0
BITMAP
7E
06
04
0C
08
10
30
20
60
40
FC
ENDCHAR

STARTCHAR char123
ENCODING 123
SWIDTH 30 0
DWIDTH 7 0
BBX 5 19 1 -4
BITMAP
18
30
20
20
20
20
20
60
40
80
60
60
20
20
20
20
20
30
18
ENDCHAR

STARTCHAR char124
ENCODING 124
SWIDTH 25 0
DWIDTH 6 0
BBX 1 15 2 0
BITMAP
80
80
80
80
80
80
80
80
80
80
80
80
80
80
80
ENDCHAR

STARTCHAR char125
ENCODING 125
SWIDTH 30 0
DWIDTH 7 0
BBX 5 19 1 -4
BITMAP
C0
20
20
20
20
20
20
30
10
08
10
30
20
20
20
20
20
60
C0
ENDCHAR

STARTCHAR char126
ENCODING 126
SWIDTH 0 0
DWIDTH 0 0
BBX 6 2 -3 16
BITMAP
74
88
ENDCHAR

STARTCHAR char128
ENCODING 128
SWIDTH 43 0
DWIDTH 10 0
BBX 10 15 -1 0
BITMAP
0F00
1980
10C0
2040
2000
2000
FF80
FF80
2000
2000
2040
2040
10C0
1080
0F00
ENDCHAR

STARTCHAR char130
ENCODING 130
SWIDTH 12 0
DWIDTH 3 0
BBX 1 4 1 -3
BITMAP
80
80
80
80
ENDCHAR

STARTCHAR char131
ENCODING 131
SWIDTH 0 0
DWIDTH 0 0
BBX 6 3 -3 16
BITMAP
30
38
48
ENDCHAR

STARTCHAR char132
ENCODING 132
SWIDTH 25 0
DWIDTH 6 0
BBX 4 4 1 -3
BITMAP
90
90
90
90
ENDCHAR

STARTCHAR char133
ENCODING 133
SWIDTH 7 0
DWIDTH 22 0
BBX 14 2 3 0
BITMAP
8204
8204
ENDCHAR

STARTCHAR char134
ENCODING 134
SWIDTH 38 0
DWIDTH 9 0
BBX 8 18 0 -3
BITMAP
08
08
08
08
08
FF
08
08
08
08
08
08
08
08
08
08
08
08
ENDCHAR

STARTCHAR char135
ENCODING 135
SWIDTH 3 0
DWIDTH 21 0
BBX 0 0 0 0
BITMAP
ENDCHAR

STARTCHAR char136
ENCODING 136
SWIDTH 0 0
DWIDTH 0 0
BBX 6 3 -3 12
BITMAP
30
78
4C
ENDCHAR

STARTCHAR char137
ENCODING 137
SWIDTH 3 0
DWIDTH 21 0
BBX 0 0 0 0
BITMAP
ENDCHAR

STARTCHAR char139
ENCODING 139
SWIDTH 30 0
DWIDTH 7 0
BBX 3 7 2 2
BITMAP
20
60
C0
80
E0
60
20
ENDCHAR

STARTCHAR char140
ENCODING 140
SWIDTH 20 0
DWIDTH 15 0
BBX 13 15 1 0
BITMAP
3BF8
4600
4200
8200
8200
8200
8200
83F0
8200
8200
8200
8200
8600
4600
3BF8
ENDCHAR

STARTCHAR char142
ENCODING 142
SWIDTH 3 0
DWIDTH 21 0
BBX 0 0 0 0
BITMAP
ENDCHAR

STARTCHAR char144
ENCODING 144
SWIDTH 3 0
DWIDTH 21 0
BBX 0 0 0 0
BITMAP
ENDCHAR

STARTCHAR char145
ENCODING 145
SWIDTH 12 0
DWIDTH 3 0
BBX 1 4 1 11
BITMAP
80
80
80
80
ENDCHAR

STARTCHAR char146
ENCODING 146
SWIDTH 12 0
DWIDTH 3 0
BBX 1 5 1 10
BITMAP
80
80
80
80
80
ENDCHAR

STARTCHAR char147
ENCODING 147
SWIDTH 25 0
DWIDTH 6 0
BBX 4 4 1 11
BITMAP
90
90
90
90
ENDCHAR

STARTCHAR char148
ENCODING 148
SWIDTH 25 0
DWIDTH 6 0
BBX 4 5 1 10
BITMAP
90
90
90
90
90
ENDCHAR

STARTCHAR char149
ENCODING 149
SWIDTH 30 0
DWIDTH 7 0
BBX 5 5 1 5
BITMAP
70
F8
F8
F8
70
ENDCHAR

STARTCHAR char150
ENCODING 150
SWIDTH 43 0
DWIDTH 10 0
BBX 7 1 1 5
BITMAP
FE
ENDCHAR

STARTCHAR char151
ENCODING 151
SWIDTH 43 0
DWIDTH 10 0
BBX 10 1 0 6
BITMAP
FFC0
ENDCHAR

STARTCHAR char152
ENCODING 152
SWIDTH 0 0
DWIDTH 0 0
BBX 6 2 -3 12
BITMAP
74
88
ENDCHAR

STARTCHAR char153
ENCODING 153
SWIDTH 38 0
DWIDTH 19 0
BBX 17 8 0 6
BITMAP
FFC380
92C300
10E500
10A500
10A500
10B900
109900
39D380
ENDCHAR

STARTCHAR char154
ENCODING 154
SWIDTH 3 0
DWIDTH 21 0
BBX 0 0 0 0
BITMAP
ENDCHAR

STARTCHAR char155
ENCODING 155
SWIDTH 30 0
DWIDTH 7 0
BBX 3 7 2 2
BITMAP
80
C0
60
20
E0
80
80
ENDCHAR

STARTCHAR char156
ENCODING 156
SWIDTH 16 0
DWIDTH 14 0
BBX 12 11 0 0
BITMAP
3DE0
4730
4210
8210
8210
83F0
8200
8200
C210
4710
3DE0
ENDCHAR

STARTCHAR char159
ENCODING 159
SWIDTH 38 0
DWIDTH 9 0
BBX 9 18 0 0
BITMAP
2200
0000
0000
8080
4100
4100
6200
2200
3600
1400
1C00
0800
0800
0800
0800
0800
0800
0800
ENDCHAR

STARTCHAR char160
ENCODING 160
SWIDTH 34 0
DWIDTH 8 0
BBX 0 0 0 0
BITMAP
ENDCHAR

STARTCHAR char161
ENCODING 161
SWIDTH 17 0
DWIDTH 4 0
BBX 1 15 1 0
BITMAP
80
00
00
00
80
80
80
80
80
80
80
80
80
80
80
ENDCHAR

STARTCHAR char162
ENCODING 162
SWIDTH 30 0
DWIDTH 7 0
BBX 6 14 1 -2
BITMAP
20
78
68
A4
A0
A0
A0
A0
A4
A4
AC
78
20
20
ENDCHAR

STARTCHAR char163
ENCODING 163
SWIDTH 43 0
DWIDTH 10 0
BBX 8 15 1 0
BITMAP
3C
46
82
82
80
C0
40
FC
20
20
20
20
40
7A
9F
ENDCHAR

STARTCHAR char164
ENCODING 164
SWIDTH 0 0
DWIDTH 0 0
BBX 3 3 0 16
BITMAP
60
40
80
ENDCHAR

STARTCHAR char165
ENCODING 165
SWIDTH 0 0
DWIDTH 0 0
BBX 6 3 -3 16
BITMAP
C4
48
30
ENDCHAR

STARTCHAR char166
ENCODING 166
SWIDTH 3 0
DWIDTH 21 0
BBX 0 0 0 0
BITMAP
ENDCHAR

STARTCHAR char167
ENCODING 167
SWIDTH 43 0
DWIDTH 10 0
BBX 7 18 1 -3
BITMAP
3C
44
42
40
40
30
D8
86
82
C2
42
32
0C
04
02
C2
46
3C
ENDCHAR

STARTCHAR char168
ENCODING 168
SWIDTH 0 0
DWIDTH 0 0
BBX 4 2 -2 12
BITMAP
90
80
ENDCHAR

STARTCHAR char169
ENCODING 169
SWIDTH 29 0
DWIDTH 17 0
BBX 14 14 1 0
BITMAP
0F80
1040
2030
47D0
88C8
8844
9004
9004
9004
8804
4C88
4710
3020
0FC0
ENDCHAR

STARTCHAR char170
ENCODING 170
SWIDTH 0 0
DWIDTH 0 0
BBX 4 1 -2 17
BITMAP
90
ENDCHAR

STARTCHAR char171
ENCODING 171
SWIDTH 34 0
DWIDTH 8 0
BBX 6 6 1 3
BITMAP
24
64
88
90
CC
24
ENDCHAR

STARTCHAR char172
ENCODING 172
SWIDTH 20 0
DWIDTH 15 0
BBX 13 6 0 0
BITMAP
FFF8
0008
0008
0008
0008
0008
ENDCHAR

STARTCHAR char173
ENCODING 173
SWIDTH 3 0
DWIDTH 21 0
BBX 0 0 0 0
BITMAP
ENDCHAR

STARTCHAR char174
ENCODING 174
SWIDTH 29 0
DWIDTH 17 0
BBX 14 14 1 0
BITMAP
0F80
1040
2020
5F10
8888
8884
8904
8F04
8B04
8984
9CE8
4010
2020
1FC0
ENDCHAR

STARTCHAR char175
ENCODING 175
SWIDTH 3 0
DWIDTH 21 0
BBX 0 0 0 0
BITMAP
ENDCHAR

STARTCHAR char176
ENCODING 176
SWIDTH 34 0
DWIDTH 8 0
BBX 6 6 1 8
BITMAP
70
88
84
84
84
78
ENDCHAR

STARTCHAR char177
ENCODING 177
SWIDTH 8 0
DWIDTH 12 0
BBX 11 13 0 0
BITMAP
0400
0400
0400
0400
0400
FFE0
0400
0400
0400
0400
0400
0000
FFE0
ENDCHAR

STARTCHAR char178
ENCODING 178
SWIDTH 3 0
DWIDTH 21 0
BBX 0 0 0 0
BITMAP
ENDCHAR

STARTCHAR char179
ENCODING 179
SWIDTH 3 0
DWIDTH 21 0
BBX 0 0 0 0
BITMAP
ENDCHAR

STARTCHAR char180
ENCODING 180
SWIDTH 0 0
DWIDTH 0 0
BBX 4 3 -1 12
BITMAP
30
20
40
ENDCHAR

STARTCHAR char181
ENCODING 181
SWIDTH 3 0
DWIDTH 21 0
BBX 0 0 0 0
BITMAP
ENDCHAR

STARTCHAR char182
ENCODING 182
SWIDTH 20 0
DWIDTH 15 0
BBX 9 18 2 -3
BITMAP
3F80
7100
F100
F100
F100
F100
F100
7100
1100
1100
1100
1100
1100
1100
1100
1100
1100
1100
ENDCHAR

STARTCHAR char183
ENCODING 183
SWIDTH 17 0
DWIDTH 4 0
BBX 1 2 1 5
BITMAP
80
80
ENDCHAR

STARTCHAR char184
ENCODING 184
SWIDTH 0 0
DWIDTH 0 0
BBX 1 4 0 -5
BITMAP
80
80
80
80
ENDCHAR

STARTCHAR char186
ENCODING 186
SWIDTH 0 0
DWIDTH 0 0
BBX 6 2 -3 16
BITMAP
74
88
ENDCHAR

STARTCHAR char187
ENCODING 187
SWIDTH 34 0
DWIDTH 8 0
BBX 6 5 1 3
BITMAP
98
4C
24
C8
90
ENDCHAR

STARTCHAR char188
ENCODING 188
SWIDTH 3 0
DWIDTH 21 0
BBX 0 0 0 0
BITMAP
ENDCHAR

STARTCHAR char191
ENCODING 191
SWIDTH 38 0
DWIDTH 9 0
BBX 7 15 1 0
BITMAP
10
00
00
00
10
10
20
20
40
40
80
86
86
44
38
ENDCHAR

STARTCHAR char192
ENCODING 192
SWIDTH 43 0
DWIDTH 10 0
BBX 9 19 0 0
BITMAP
6000
3000
1800
0000
0800
1C00
1400
1400
1400
2200
2200
2200
6200
7F00
4100
4100
C180
8080
8080
ENDCHAR

STARTCHAR char193
ENCODING 193
SWIDTH 43 0
DWIDTH 10 0
BBX 9 19 0 0
BITMAP
0200
0600
0C00
0000
0800
1C00
1400
1400
1400
2200
2200
2200
6200
7F00
4100
4100
C180
8080
8080
ENDCHAR

STARTCHAR char194
ENCODING 194
SWIDTH 43 0
DWIDTH 10 0
BBX 9 19 0 0
BITMAP
0800
1400
2200
0000
0800
1C00
1400
1400
1400
2200
2200
2200
6200
7F00
4100
4100
C180
8080
8080
ENDCHAR

STARTCHAR char195
ENCODING 195
SWIDTH 43 0
DWIDTH 10 0
BBX 9 18 0 0
BITMAP
3A00
4400
0000
0800
1C00
1400
1400
1400
2200
2200
2200
6200
7F00
4100
4100
C180
8080
8080
ENDCHAR

STARTCHAR char196
ENCODING 196
SWIDTH 43 0
DWIDTH 10 0
BBX 9 18 0 0
BITMAP
2200
2000
0000
0800
1C00
1400
1400
1400
2200
2200
2200
6200
7F00
4100
4100
8180
8080
8080
ENDCHAR

STARTCHAR char197
ENCODING 197
SWIDTH 43 0
DWIDTH 10 0
BBX 9 20 0 0
BITMAP
0C00
1600
1200
0C00
0000
0800
1C00
1400
1400
1400
2200
2200
2200
6200
7F00
4100
4100
C180
8080
8080
ENDCHAR

STARTCHAR char198
ENCODING 198
SWIDTH 20 0
DWIDTH 15 0
BBX 13 15 0 0
BITMAP
07F8
0E00
0A00
0A00
1200
1200
1200
23F8
2200
3E00
4200
4200
4200
8200
83F8
ENDCHAR

STARTCHAR char199
ENCODING 199
SWIDTH 43 0
DWIDTH 10 0
BBX 8 20 1 -5
BITMAP
3C
46
C3
81
80
80
80
80
80
80
81
81
43
42
3C
00
10
08
10
10
ENDCHAR

STARTCHAR char200
ENCODING 200
SWIDTH 38 0
DWIDTH 9 0
BBX 7 19 1 0
BITMAP
C0
60
20
00
FE
80
80
80
80
80
80
FE
80
80
80
80
80
80
FE
ENDCHAR

STARTCHAR char201
ENCODING 201
SWIDTH 38 0
DWIDTH 9 0
BBX 7 19 1 0
BITMAP
04
08
10
00
FE
80
80
80
80
80
80
FE
80
80
80
80
80
80
FE
ENDCHAR

STARTCHAR char202
ENCODING 202
SWIDTH 38 0
DWIDTH 9 0
BBX 7 19 1 0
BITMAP
30
38
4C
00
FE
80
80
80
80
80
80
FE
80
80
80
80
80
80
FE
ENDCHAR

STARTCHAR char203
ENCODING 203
SWIDTH 38 0
DWIDTH 9 0
BBX 7 18 1 0
BITMAP
44
00
00
FE
80
80
80
80
80
80
FE
80
80
80
80
80
80
FE
ENDCHAR

STARTCHAR char204
ENCODING 204
SWIDTH 17 0
DWIDTH 4 0
BBX 3 19 -1 0
BITMAP
80
40
60
00
20
20
20
20
20
20
20
20
20
20
20
20
20
20
20
ENDCHAR

STARTCHAR char205
ENCODING 205
SWIDTH 17 0
DWIDTH 4 0
BBX 4 19 1 0
BITMAP
30
60
C0
00
80
80
80
80
80
80
80
80
80
80
80
80
80
80
80
ENDCHAR

STARTCHAR char206
ENCODING 206
SWIDTH 17 0
DWIDTH 4 0
BBX 6 19 -1 0
BITMAP
20
50
C8
00
20
20
20
20
20
20
20
20
20
20
20
20
20
20
20
ENDCHAR

STARTCHAR char207
ENCODING 207
SWIDTH 17 0
DWIDTH 4 0
BBX 5 18 -1 0
BITMAP
88
00
00
20
20
20
20
20
20
20
20
20
20
20
20
20
20
20
ENDCHAR

STARTCHAR char208
ENCODING 208
SWIDTH 3 0
DWIDTH 21 0
BBX 0 0 0 0
BITMAP
ENDCHAR

STARTCHAR char209
ENCODING 209
SWIDTH 3 0
DWIDTH 11 0
BBX 8 18 1 0
BITMAP
3E
44
00
C1
C1
C1
A1
A1
91
91
99
89
89
85
85
83
83
81
ENDCHAR

STARTCHAR char210
ENCODING 210
SWIDTH 3 0
DWIDTH 11 0
BBX 8 19 1 0
BITMAP
60
20
10
00
3C
62
41
81
81
81
81
81
81
81
81
81
41
62
3C
ENDCHAR

STARTCHAR char211
ENCODING 211
SWIDTH 3 0
DWIDTH 11 0
BBX 8 19 1 0
BITMAP
06
04
08
00
3C
62
41
81
81
81
81
81
81
81
81
81
41
62
3C
ENDCHAR

STARTCHAR char212
ENCODING 212
SWIDTH 3 0
DWIDTH 11 0
BBX 8 19 1 0
BITMAP
18
1C
24
00
3C
62
41
81
81
81
81
81
81
81
81
81
41
62
3C
ENDCHAR

STARTCHAR char213
ENCODING 213
SWIDTH 3 0
DWIDTH 11 0
BBX 8 18 1 0
BITMAP
3A
44
00
3C
62
41
81
81
81
81
81
81
81
81
81
41
62
3C
ENDCHAR

STARTCHAR char214
ENCODING 214
SWIDTH 3 0
DWIDTH 11 0
BBX 8 18 1 0
BITMAP
24
20
00
3C
62
41
81
81
81
81
81
81
81
81
81
41
62
3C
ENDCHAR

STARTCHAR char215
ENCODING 215
SWIDTH 3 0
DWIDTH 21 0
BBX 0 0 0 0
BITMAP
ENDCHAR

STARTCHAR char216
ENCODING 216
SWIDTH 3 0
DWIDTH 11 0
BBX 8 16 1 -1
BITMAP
3D
62
42
83
85
85
89
89
91
91
A1
C1
41
42
BC
80
ENDCHAR

STARTCHAR char217
ENCODING 217
SWIDTH 3 0
DWIDTH 11 0
BBX 8 19 1 0
BITMAP
60
20
10
00
81
81
81
81
81
81
81
81
81
81
81
81
81
42
3C
ENDCHAR

STARTCHAR char218
ENCODING 218
SWIDTH 3 0
DWIDTH 11 0
BBX 8 19 1 0
BITMAP
06
04
08
00
81
81
81
81
81
81
81
81
81
81
81
81
81
42
3C
ENDCHAR

STARTCHAR char219
ENCODING 219
SWIDTH 3 0
DWIDTH 11 0
BBX 8 19 1 0
BITMAP
18
1C
24
00
81
81
81
81
81
81
81
81
81
81
81
81
81
42
3C
ENDCHAR

STARTCHAR char220
ENCODING 220
SWIDTH 3 0
DWIDTH 11 0
BBX 8 18 1 0
BITMAP
24
00
00
81
81
81
81
81
81
81
81
81
81
81
81
81
42
3C
ENDCHAR

STARTCHAR char221
ENCODING 221
SWIDTH 3 0
DWIDTH 21 0
BBX 0 0 0 0
BITMAP
ENDCHAR

STARTCHAR char223
ENCODING 223
SWIDTH 38 0
DWIDTH 9 0
BBX 7 15 1 0
BITMAP
38
48
84
84
84
8C
98
8C
84
84
86
84
84
84
98
ENDCHAR

STARTCHAR char224
ENCODING 224
SWIDTH 34 0
DWIDTH 8 0
BBX 6 15 1 0
BITMAP
C0
40
20
00
78
88
8C
0C
1C
68
C8
88
88
8C
7C
ENDCHAR

STARTCHAR char225
ENCODING 225
SWIDTH 34 0
DWIDTH 8 0
BBX 6 15 1 0
BITMAP
0C
18
10
00
78
88
8C
0C
1C
68
C8
88
88
8C
7C
ENDCHAR

STARTCHAR char226
ENCODING 226
SWIDTH 34 0
DWIDTH 8 0
BBX 6 15 1 0
BITMAP
30
50
48
00
78
88
8C
0C
1C
68
C8
88
88
8C
7C
ENDCHAR

STARTCHAR char227
ENCODING 227
SWIDTH 34 0
DWIDTH 8 0
BBX 6 14 1 0
BITMAP
78
88
00
78
88
8C
0C
1C
68
C8
88
88
8C
7C
ENDCHAR

STARTCHAR char228
ENCODING 228
SWIDTH 34 0
DWIDTH 8 0
BBX 7 14 1 0
BITMAP
4C
00
00
78
8C
8C
0C
1C
74
44
84
84
8C
76
ENDCHAR

STARTCHAR char229
ENCODING 229
SWIDTH 34 0
DWIDTH 8 0
BBX 7 16 1 0
BITMAP
30
48
48
30
00
78
4C
8C
0C
1C
74
C4
84
84
8C
76
ENDCHAR

STARTCHAR char230
ENCODING 230
SWIDTH 12 0
DWIDTH 13 0
BBX 11 11 0 0
BITMAP
39C0
4620
C620
0420
0420
1FE0
6400
8400
8620
C620
79C0
ENDCHAR

STARTCHAR char231
ENCODING 231
SWIDTH 30 0
DWIDTH 7 0
BBX 6 16 1 -5
BITMAP
70
48
84
80
80
80
80
84
84
4C
78
00
20
10
20
20
ENDCHAR

STARTCHAR char232
ENCODING 232
SWIDTH 34 0
DWIDTH 8 0
BBX 6 15 1 0
BITMAP
C0
40
20
00
78
48
84
84
84
FC
80
80
84
88
78
ENDCHAR

STARTCHAR char233
ENCODING 233
SWIDTH 34 0
DWIDTH 8 0
BBX 6 15 1 0
BITMAP
0C
18
10
00
78
48
84
84
84
FC
80
80
84
88
78
ENDCHAR

STARTCHAR char234
ENCODING 234
SWIDTH 34 0
DWIDTH 8 0
BBX 6 15 1 0
BITMAP
30
50
48
00
78
48
84
84
84
FC
80
80
84
88
78
ENDCHAR

STARTCHAR char235
ENCODING 235
SWIDTH 34 0
DWIDTH 8 0
BBX 6 14 1 0
BITMAP
48
40
00
78
48
84
84
84
FC
80
80
84
88
78
ENDCHAR

STARTCHAR char236
ENCODING 236
SWIDTH 12 0
DWIDTH 3 0
BBX 3 15 -1 0
BITMAP
80
40
40
00
20
20
20
20
20
20
20
20
20
20
20
ENDCHAR

STARTCHAR char237
ENCODING 237
SWIDTH 12 0
DWIDTH 3 0
BBX 4 15 1 0
BITMAP
20
40
80
00
80
80
80
80
80
80
80
80
80
80
80
ENDCHAR

STARTCHAR char238
ENCODING 238
SWIDTH 12 0
DWIDTH 3 0
BBX 5 15 -1 0
BITMAP
20
50
88
00
20
20
20
20
20
20
20
20
20
20
20
ENDCHAR

STARTCHAR char239
ENCODING 239
SWIDTH 12 0
DWIDTH 3 0
BBX 5 14 -1 0
BITMAP
88
80
00
20
20
20
20
20
20
20
20
20
20
20
ENDCHAR

STARTCHAR char241
ENCODING 241
SWIDTH 38 0
DWIDTH 9 0
BBX 6 14 1 0
BITMAP
7C
88
00
B8
C4
84
84
84
84
84
84
84
84
84
ENDCHAR

STARTCHAR char242
ENCODING 242
SWIDTH 38 0
DWIDTH 9 0
BBX 7 15 1 0
BITMAP
40
60
20
00
78
44
86
82
82
82
82
82
86
84
78
ENDCHAR

STARTCHAR char243
ENCODING 243
SWIDTH 38 0
DWIDTH 9 0
BBX 7 15 1 0
BITMAP
0C
18
10
00
78
44
86
82
82
82
82
82
86
84
78
ENDCHAR

STARTCHAR char244
ENCODING 244
SWIDTH 38 0
DWIDTH 9 0
BBX 7 15 1 0
BITMAP
30
38
4C
00
78
44
86
82
82
82
82
82
86
84
78
ENDCHAR

STARTCHAR char245
ENCODING 245
SWIDTH 38 0
DWIDTH 9 0
BBX 7 14 1 0
BITMAP
74
48
00
78
44
86
82
82
82
82
82
86
84
78
ENDCHAR

STARTCHAR char246
ENCODING 246
SWIDTH 38 0
DWIDTH 9 0
BBX 7 14 1 0
BITMAP
4C
00
00
78
44
86
82
82
82
82
82
86
44
78
ENDCHAR

STARTCHAR char247
ENCODING 247
SWIDTH 8 0
DWIDTH 12 0
BBX 11 7 0 2
BITMAP
0C00
0C00
0000
FFE0
0000
0C00
0C00
ENDCHAR

STARTCHAR char248
ENCODING 248
SWIDTH 38 0
DWIDTH 9 0
BBX 8 12 0 -1
BITMAP
3F
22
43
45
49
49
51
61
63
62
FC
40
ENDCHAR

STARTCHAR char249
ENCODING 249
SWIDTH 38 0
DWIDTH 9 0
BBX 6 15 1 0
BITMAP
C0
60
20
00
84
84
84
84
84
84
84
84
84
8C
74
ENDCHAR

STARTCHAR char250
ENCODING 250
SWIDTH 38 0
DWIDTH 9 0
BBX 6 15 1 0
BITMAP
0C
08
10
00
84
84
84
84
84
84
84
84
84
8C
74
ENDCHAR

STARTCHAR char251
ENCODING 251
SWIDTH 38 0
DWIDTH 9 0
BBX 6 15 1 0
BITMAP
30
78
48
00
84
84
84
84
84
84
84
84
84
8C
74
ENDCHAR

STARTCHAR char252
ENCODING 252
SWIDTH 38 0
DWIDTH 9 0
BBX 6 14 1 0
BITMAP
48
00
00
84
84
84
84
84
84
84
84
84
8C
74
ENDCHAR

STARTCHAR char255
ENCODING 255
SWIDTH 30 0
DWIDTH 7 0
BBX 7 18 0 -4
BITMAP
48
40
00
82
82
44
44
44
4C
28
28
28
30
10
10
20
20
C0
ENDCHAR
ENDFONT
